# xmcd CD database file
#
# Track frame offsets:
#	150
#	13104
#	29931
#	47463
#	62805
#	75342
#
# Disc length: 1351 seconds
#
# Revision: 2
# Processed by: cddbd v1.5.2PL0 Copyright (c) Steve Scherf et al.
# Submitted via: CDex 1.51
#
DISCID=45054506
DTITLE=John Mayer - The Village Sessions
DYEAR=2006
DGENRE=Rock
TTITLE0=Waiting On The World To Change (feat. Ben Harper)
TTITLE1=Belief
TTITLE2=Slow Dancing In A Burning Room
TTITLE3=Good Love Is On The Way
TTITLE4=I'm Gonna Find Another You
TTITLE5=In Repair
EXTD=YEAR: 2006
EXTT0=
EXTT1=
EXTT2=
EXTT3=
EXTT4=
EXTT5=
PLAYORDER=
